<svg width="104" height="25" viewBox="0 0 104 25" fill="none" xmlns="http://www.w3.org/2000/svg">
<path d="M17.8673 18.9385C17.7885 19.6477 17.3682 20.0023 16.6065 20.0023C16.2125 20.0023 15.8973 19.8841 15.6609 19.6477C15.4377 19.4113 15.3261 19.0699 15.3261 18.6234C15.3261 17.8617 15.3589 17.0474 15.4246 16.1806C15.5034 15.3007 15.5953 14.4143 15.7003 13.5212C15.8185 12.6282 15.9302 11.7746 16.0352 10.9603C15.5625 11.6432 15.0634 12.3458 14.5381 13.0682C14.0128 13.7905 13.4875 14.4931 12.9621 15.176C12.4368 15.8589 11.9312 16.4761 11.4453 17.0277C10.9725 17.5662 10.5391 17.9995 10.1451 18.3279C9.75116 18.6431 9.42283 18.8007 9.16018 18.8007C8.5298 18.8007 7.98479 18.5708 7.52513 18.1112C7.06548 17.6384 6.83566 17.0408 6.83566 16.3185C6.83566 16.069 6.86193 15.7341 6.91446 15.3139C6.96699 14.8805 7.03265 14.4208 7.11145 13.9349C7.19025 13.449 7.25591 12.9894 7.30844 12.556C7.36097 12.1226 7.38724 11.7811 7.38724 11.5316C7.38724 11.5316 7.38724 11.5185 7.38724 11.4922C7.40037 11.4265 7.38724 11.3937 7.34784 11.3937C7.29531 11.3937 7.15085 11.571 6.91446 11.9256C6.67806 12.267 6.38914 12.7136 6.04769 13.2651C5.70623 13.8167 5.34508 14.3946 4.96422 14.9987C4.5965 15.6028 4.24848 16.1675 3.92016 16.6928C3.60497 17.2181 3.34232 17.6253 3.13219 17.9142C2.84327 18.3607 2.57404 18.6431 2.32452 18.7613C2.07499 18.8794 1.78607 18.9385 1.45775 18.9385C0.998098 18.9385 0.636944 18.7875 0.374287 18.4855C0.124762 18.1703 0 17.7303 0 17.1656C0 16.9292 0.0393986 16.5615 0.118196 16.0624C0.210126 15.5634 0.321755 15.0118 0.453084 14.4077C0.584413 13.7905 0.715742 13.1929 0.84707 12.6151C0.991532 12.0241 1.11629 11.525 1.22136 11.1179C1.33955 10.5795 1.50371 10.2052 1.71384 9.99506C1.9371 9.7718 2.21946 9.66018 2.56091 9.66018C3.36201 9.66018 3.76257 10.0542 3.76257 10.8421C3.76257 10.9866 3.7166 11.223 3.62467 11.5513C3.53274 11.8796 3.42111 12.2605 3.28978 12.6939C3.15846 13.1273 3.02056 13.5738 2.8761 14.0334C2.73164 14.4799 2.61344 14.9002 2.52151 15.2942C2.8367 14.7426 3.17815 14.1516 3.54587 13.5212C3.9136 12.8909 4.28788 12.2736 4.66874 11.6695C5.06272 11.0654 5.45014 10.5138 5.83099 10.0148C6.22498 9.51571 6.6124 9.12173 6.99325 8.83281C7.37411 8.53075 7.73526 8.37972 8.07672 8.37972C8.41817 8.37972 8.75306 8.50448 9.08138 8.75401C9.4097 8.9904 9.67893 9.29902 9.88905 9.67988C10.1123 10.0476 10.2239 10.4416 10.2239 10.8618C10.2239 11.2558 10.1714 11.7286 10.0663 12.2802C9.96128 12.8318 9.84309 13.4096 9.71176 14.0137C9.58043 14.6178 9.4885 15.2088 9.43597 15.7867C9.88248 15.2876 10.3553 14.7229 10.8543 14.0925C11.3534 13.449 11.8655 12.7858 12.3909 12.1029C12.9162 11.42 13.4284 10.7568 13.9274 10.1133C14.4396 9.46975 14.9124 8.88534 15.3458 8.36002C15.7923 7.83471 16.1863 7.42102 16.5277 7.11897C16.8692 6.80378 17.1318 6.64618 17.3157 6.64618C17.8541 6.64618 18.2744 6.79064 18.5764 7.07957C18.8916 7.35536 19.0492 7.84127 19.0492 8.53732C19.0492 8.9707 19.0164 9.53541 18.9507 10.2315C18.8982 10.9275 18.8194 11.6826 18.7143 12.4969C18.6224 13.298 18.5173 14.1122 18.3992 14.9396C18.2941 15.7538 18.1956 16.509 18.1037 17.205C18.0117 17.9011 17.9329 18.4789 17.8673 18.9385Z" fill="black"/>
<path d="M24.9609 20.0417C24.0284 20.0417 23.2799 19.7134 22.7151 19.0567C22.1504 18.387 21.8681 17.4939 21.8681 16.3776C21.8681 16.0231 21.914 15.6619 22.006 15.2942C22.111 14.9265 22.2358 14.585 22.3803 14.2698C22.3015 14.1516 22.2358 14.0006 22.1833 13.8167C22.1439 13.6197 22.1242 13.3899 22.1242 13.1273C22.1242 12.2736 22.2752 11.4922 22.5772 10.783C22.8793 10.0607 23.2864 9.43692 23.7986 8.9116C24.3108 8.38629 24.8755 7.97917 25.4927 7.69025C26.11 7.40132 26.7338 7.25686 27.3642 7.25686C28.4411 7.25686 29.321 7.61801 30.0039 8.34032C30.6999 9.06263 31.048 10.1855 31.048 11.7089C31.048 12.4706 30.9298 13.2454 30.6934 14.0334C30.457 14.8214 30.1352 15.5765 29.7281 16.2988C29.3341 17.008 28.8745 17.645 28.3491 18.2097C27.837 18.7744 27.2854 19.2209 26.6944 19.5492C26.1166 19.8775 25.5387 20.0417 24.9609 20.0417ZM24.6457 13.3833C24.7113 13.5278 24.7442 13.6985 24.7442 13.8955C24.7442 14.0925 24.7048 14.2961 24.626 14.5062C24.5472 14.7163 24.4684 14.9987 24.3896 15.3533C24.3108 15.6947 24.2714 16.1872 24.2714 16.8307C24.2714 17.0014 24.2911 17.1459 24.3305 17.2641C24.383 17.3692 24.4946 17.4217 24.6654 17.4217C25.1119 17.4217 25.5321 17.2772 25.9261 16.9883C26.3333 16.6994 26.6944 16.3185 27.0096 15.8458C27.3379 15.373 27.6137 14.8477 27.837 14.2698C28.0734 13.6788 28.2507 13.0813 28.3688 12.4772C28.5002 11.8599 28.5658 11.2887 28.5658 10.7633C28.5658 10.4219 28.5002 10.1855 28.3688 10.0542C28.2375 9.92283 28.0077 9.85717 27.6794 9.85717C27.2329 9.85717 26.7732 10.0016 26.3004 10.2906C25.8408 10.5663 25.4533 10.9472 25.1382 11.4331C24.823 11.9059 24.6654 12.4443 24.6654 13.0485C24.6654 13.1667 24.6588 13.2783 24.6457 13.3833Z" fill="black"/>
<path d="M33.3932 10.9406C32.9861 10.8881 32.6512 10.783 32.3886 10.6254C32.1259 10.4547 32.0012 10.1855 32.0143 9.81777C32.0406 9.47632 32.1588 9.22679 32.3689 9.0692C32.5921 8.9116 32.8811 8.83281 33.2356 8.83281C33.9317 8.83281 34.6146 8.83281 35.2844 8.83281C35.9542 8.83281 36.6042 8.83281 37.2346 8.83281C37.5629 7.30939 37.9832 5.89761 38.4954 4.59745C39.0075 3.28417 39.5788 2.14161 40.2092 1.16978C40.485 0.723259 40.8855 0.5 41.4109 0.5C41.6079 0.5 41.7523 0.59193 41.8442 0.77579C41.9362 0.946518 41.9821 1.17634 41.9821 1.46527C41.9821 1.59659 41.923 1.88552 41.8048 2.33203C41.6998 2.76542 41.5553 3.317 41.3715 3.98678C41.1876 4.65655 40.984 5.40513 40.7608 6.2325C40.5507 7.05987 40.3405 7.9135 40.1304 8.79341C41.5094 8.78027 42.7898 8.75401 43.9718 8.71461C45.1669 8.67521 46.2766 8.63581 47.301 8.59641C47.8788 7.44072 48.4304 6.24563 48.9557 5.01114C49.2052 4.2757 49.435 3.65846 49.6452 3.15941C49.8684 2.66036 50.0589 2.3386 50.2165 2.19414C50.4003 1.99715 50.571 1.87238 50.7286 1.81985C50.8862 1.75419 51.0307 1.72136 51.162 1.72136C51.3853 1.72136 51.5757 1.80015 51.7333 1.95775C51.904 2.11534 51.9894 2.39113 51.9894 2.78512C51.9894 2.87705 51.9237 3.18567 51.7924 3.71099C51.6611 4.22317 51.4838 4.88638 51.2605 5.70062C51.0373 6.51485 50.7877 7.42102 50.5119 8.41912C51.6151 8.35346 52.5607 8.28779 53.3486 8.22213C54.1497 8.15646 54.7998 8.10393 55.2989 8.06453C55.6535 8.02513 55.9293 7.99887 56.1262 7.98573C56.3364 7.9726 56.4743 7.96604 56.5399 7.96604C57.1178 7.9923 57.387 8.29436 57.3476 8.8722C57.3345 9.29245 57.1112 9.57481 56.6778 9.71927C56.1788 9.94253 55.3186 10.1461 54.0972 10.33C52.8759 10.5007 51.4641 10.6451 49.8619 10.7633C49.5335 11.9453 49.1987 13.1273 48.8572 14.3092C48.5289 15.4912 48.2203 16.5943 47.9313 17.6187C47.6424 18.6299 47.3995 19.477 47.2025 20.1599H47.2222C47.0646 20.8034 46.6706 21.1252 46.0402 21.1252C45.7381 21.1252 45.4886 21.0332 45.2916 20.8494C45.0946 20.6787 44.9961 20.3963 44.9961 20.0023C44.9961 19.9235 45.0552 19.6149 45.1734 19.0764C45.2916 18.5249 45.4492 17.8223 45.6462 16.9686C45.8563 16.1018 46.0927 15.1563 46.3554 14.1319C45.6593 15.2482 44.9436 16.2266 44.2082 17.0671C43.4859 17.9076 42.7767 18.5643 42.0806 19.037C41.3846 19.5098 40.7345 19.7462 40.1304 19.7462C39.0141 19.7462 38.1211 19.4113 37.4513 18.7416C36.7815 18.0718 36.4466 17.1656 36.4466 16.0231C36.4466 15.1957 36.4729 14.3749 36.5254 13.5606C36.5911 12.7333 36.683 11.9256 36.8012 11.1376C36.1314 11.1245 35.5076 11.1048 34.9298 11.0785C34.3519 11.0391 33.8398 10.9932 33.3932 10.9406ZM46.0008 10.9997C43.8207 11.1048 41.6932 11.1573 39.6182 11.1573C39.4344 12.0635 39.2833 12.9434 39.1651 13.797C39.0469 14.6375 38.9878 15.3927 38.9878 16.0624C38.9878 16.4564 39.0863 16.7782 39.2833 17.0277C39.4803 17.2641 39.8021 17.3823 40.2486 17.3823C40.7345 17.3823 41.2861 17.1131 41.9033 16.5746C42.5337 16.0231 43.1969 15.2679 43.893 14.3092C44.589 13.3505 45.2916 12.2474 46.0008 10.9997Z" fill="black"/>
<path d="M57.7995 20.0417C56.867 20.0417 56.1184 19.7134 55.5537 19.0567C54.989 18.387 54.7067 17.4939 54.7067 16.3776C54.7067 16.0231 54.7526 15.6619 54.8446 15.2942C54.9496 14.9265 55.0744 14.585 55.2188 14.2698C55.14 14.1516 55.0744 14.0006 55.0218 13.8167C54.9824 13.6197 54.9628 13.3899 54.9628 13.1273C54.9628 12.2736 55.1138 11.4922 55.4158 10.783C55.7179 10.0607 56.125 9.43692 56.6372 8.9116C57.1494 8.38629 57.7141 7.97917 58.3313 7.69025C58.9486 7.40132 59.5724 7.25686 60.2028 7.25686C61.2797 7.25686 62.1596 7.61801 62.8425 8.34032C63.5385 9.06263 63.8865 10.1855 63.8865 11.7089C63.8865 12.4706 63.7683 13.2454 63.5319 14.0334C63.2956 14.8214 62.9738 15.5765 62.5667 16.2988C62.1727 17.008 61.713 17.645 61.1877 18.2097C60.6755 18.7744 60.124 19.2209 59.533 19.5492C58.9551 19.8775 58.3773 20.0417 57.7995 20.0417ZM57.4843 13.3833C57.5499 13.5278 57.5828 13.6985 57.5828 13.8955C57.5828 14.0925 57.5434 14.2961 57.4646 14.5062C57.3858 14.7163 57.307 14.9987 57.2282 15.3533C57.1494 15.6947 57.11 16.1872 57.11 16.8307C57.11 17.0014 57.1297 17.1459 57.1691 17.2641C57.2216 17.3692 57.3332 17.4217 57.504 17.4217C57.9505 17.4217 58.3707 17.2772 58.7647 16.9883C59.1718 16.6994 59.533 16.3185 59.8482 15.8458C60.1765 15.373 60.4523 14.8477 60.6755 14.2698C60.9119 13.6788 61.0892 13.0813 61.2074 12.4772C61.3388 11.8599 61.4044 11.2887 61.4044 10.7633C61.4044 10.4219 61.3388 10.1855 61.2074 10.0542C61.0761 9.92283 60.8463 9.85717 60.518 9.85717C60.0714 9.85717 59.6118 10.0016 59.139 10.2906C58.6794 10.5663 58.2919 10.9472 57.9767 11.4331C57.6616 11.9059 57.504 12.4443 57.504 13.0485C57.504 13.1667 57.4974 13.2783 57.4843 13.3833Z" fill="black"/>
<path d="M63.8505 24.6513C63.1151 24.6513 62.511 24.4937 62.0382 24.1786C61.5523 23.8765 61.3093 23.43 61.3093 22.839C61.3093 22.4582 61.5063 22.1036 61.9003 21.7752C62.2811 21.4469 62.813 21.112 63.4959 20.7706C64.1788 20.4423 64.9734 20.0745 65.8795 19.6674C66.0897 18.9451 66.3064 18.0061 66.5296 16.8504C66.766 15.6816 67.0221 14.2238 67.2979 12.4772C67.4292 11.6235 67.554 10.9603 67.6722 10.4875C67.7904 10.0148 67.9086 9.67331 68.0268 9.46318C68.145 9.25306 68.2632 9.12829 68.3814 9.0889C68.5127 9.03637 68.6506 9.0101 68.795 9.0101C68.9395 9.0101 69.1431 9.0889 69.4057 9.24649C69.6684 9.39095 69.9048 9.59451 70.1149 9.85717C70.325 10.1067 70.4301 10.4022 70.4301 10.7436C70.4301 10.9275 70.3973 11.1967 70.3316 11.5513C70.2659 11.9059 70.1543 12.2933 69.9967 12.7136C69.8391 13.1338 69.6224 13.5344 69.3466 13.9152C68.9789 15.7538 68.6375 17.2969 68.3223 18.5446C69.478 17.9667 70.5877 17.3232 71.6514 16.614C72.7152 15.8917 73.6017 15.0381 74.3109 14.0531C74.4159 13.9218 74.5144 13.8233 74.6063 13.7576C74.6983 13.692 74.823 13.6591 74.9806 13.6591C75.2039 13.6591 75.368 13.7379 75.4731 13.8955C75.5782 14.0531 75.6307 14.2567 75.6307 14.5062C75.6307 15.0578 75.4009 15.6094 74.9412 16.1609C74.4947 16.7125 73.884 17.2641 73.1092 17.8157C72.3344 18.3541 71.4676 18.8794 70.5089 19.3916C69.5633 19.9169 68.5915 20.4291 67.5934 20.9282C67.2388 21.9657 66.8711 22.7471 66.4902 23.2724C66.1225 23.8108 65.722 24.172 65.2886 24.3559C64.8552 24.5528 64.3758 24.6513 63.8505 24.6513ZM69.1102 7.35536C68.7556 7.35536 68.4536 7.25029 68.2041 7.04017C67.9545 6.81691 67.8298 6.46232 67.8298 5.97641C67.8298 5.62182 67.9217 5.2935 68.1056 4.99144C68.3026 4.67625 68.5521 4.42673 68.8541 4.24287C69.1562 4.05901 69.4714 3.96708 69.7997 3.96708C70.2988 3.96708 70.7059 4.11154 71.0211 4.40046C71.3494 4.68939 71.5135 5.05711 71.5135 5.50362C71.5135 5.91074 71.3822 6.2522 71.1196 6.52799C70.8569 6.79064 70.5286 6.92197 70.1346 6.92197C70.1215 6.92197 70.1083 6.92197 70.0952 6.92197C70.0821 6.92197 70.0689 6.92197 70.0558 6.92197C69.8457 7.10583 69.6684 7.22403 69.5239 7.27656C69.3926 7.32909 69.2547 7.35536 69.1102 7.35536Z" fill="black"/>
<path d="M75.2206 19.6871C74.8528 19.6871 74.5245 19.5624 74.2356 19.3128C73.9598 19.0633 73.8219 18.6562 73.8219 18.0915C73.8219 17.7894 73.8613 17.3626 73.9401 16.811C74.032 16.2594 74.1502 15.6619 74.2947 15.0184C74.4392 14.3617 74.5968 13.7117 74.7675 13.0682C74.9513 12.4246 75.1286 11.8534 75.2994 11.3543C75.4701 10.8421 75.6211 10.4613 75.7524 10.2118C75.9232 9.9097 76.0808 9.72584 76.2252 9.66018C76.3828 9.58138 76.5338 9.54198 76.6783 9.54198C76.941 9.54198 77.1839 9.62078 77.4072 9.77837C77.6436 9.93597 77.7618 10.284 77.7618 10.8224C77.7618 11.0326 77.7224 11.374 77.6436 11.8468C77.5648 12.3064 77.4663 12.8449 77.3481 13.4621C77.2299 14.0794 77.0986 14.7163 76.9541 15.373C76.8228 16.0296 76.6914 16.6534 76.5601 17.2444C76.4419 17.8223 76.3434 18.3082 76.2646 18.7022C76.199 19.0305 76.0611 19.2734 75.8509 19.431C75.6539 19.6018 75.4438 19.6871 75.2206 19.6871ZM77.486 7.59175C77.0526 7.59175 76.652 7.46699 76.2843 7.21746C75.9166 6.95481 75.7327 6.55425 75.7327 6.0158C75.7327 5.56929 75.8444 5.20813 76.0676 4.93234C76.2909 4.65655 76.5535 4.45956 76.8556 4.34136C77.1708 4.21004 77.4466 4.14437 77.683 4.14437C77.9194 4.14437 78.182 4.1969 78.4709 4.30197C78.7599 4.3939 79.0094 4.57119 79.2195 4.83385C79.4428 5.08337 79.5544 5.44453 79.5544 5.91731C79.5544 6.2325 79.4428 6.52142 79.2195 6.78408C78.9963 7.0336 78.7205 7.23059 78.3922 7.37506C78.077 7.51952 77.7749 7.59175 77.486 7.59175Z" fill="black"/>
<path d="M83.489 24.8089C82.7536 24.8089 82.0838 24.763 81.4797 24.671C80.8756 24.5922 80.2846 24.4609 79.7068 24.2771C79.1289 24.0932 78.5051 23.8502 77.8353 23.5482C77.5595 23.4169 77.3297 23.279 77.1459 23.1345C76.962 22.99 76.8701 22.7733 76.8701 22.4844C76.8701 22.0642 77.0014 21.7424 77.2641 21.5192C77.5136 21.309 77.8616 21.204 78.3081 21.204C78.5445 21.204 78.8466 21.2828 79.2143 21.4404C79.582 21.6111 80.0023 21.8015 80.475 22.0116C80.961 22.2349 81.4994 22.4253 82.0904 22.5829C82.6814 22.7536 83.3183 22.839 84.0012 22.839C84.6973 22.839 85.3473 22.5501 85.9514 21.9722C86.5556 21.3944 87.0415 20.5802 87.4092 19.5295C87.7901 18.492 87.9805 17.2641 87.9805 15.8458C87.9805 15.5174 87.9739 15.1628 87.9608 14.782C87.9476 14.388 87.9345 13.9743 87.9214 13.5409C87.4486 14.434 86.9364 15.2679 86.3848 16.0427C85.8333 16.8176 85.262 17.448 84.671 17.9339C84.0931 18.4067 83.5087 18.6431 82.9178 18.6431C82.1954 18.6431 81.6701 18.4723 81.3418 18.1309C81.0266 17.7763 80.869 17.2181 80.869 16.4564C80.869 15.8129 80.915 15.1103 81.0069 14.3486C81.112 13.5738 81.2499 12.7924 81.4206 12.0044C81.5913 11.2164 81.7883 10.4678 82.0116 9.75867C82.248 9.03636 82.4975 8.41255 82.7602 7.88724C82.9572 7.50639 83.2592 7.31596 83.6663 7.31596C83.929 7.31596 84.1916 7.44072 84.4543 7.69025C84.7301 7.93977 84.868 8.27466 84.868 8.69491C84.868 8.9313 84.8089 9.27276 84.6907 9.71927C84.5725 10.1658 84.428 10.6714 84.2573 11.2361C84.0997 11.7877 83.9356 12.3721 83.7648 12.9894C83.5941 13.5935 83.4496 14.191 83.3314 14.782C83.2132 15.3598 83.1542 15.8852 83.1542 16.3579C83.1542 16.4105 83.1935 16.4367 83.2723 16.4367C83.4299 16.4367 83.6401 16.3054 83.9027 16.0427C84.1785 15.767 84.4806 15.4124 84.8089 14.979C85.1503 14.5325 85.4918 14.0466 85.8333 13.5212C86.1878 12.9828 86.5293 12.4509 86.8576 11.9256C87.1859 11.4003 87.4814 10.9209 87.7441 10.4875C87.7047 10.2774 87.6784 10.0936 87.6653 9.93597C87.6653 9.76524 87.6653 9.62078 87.6653 9.50258C87.6653 8.96413 87.7572 8.51762 87.9411 8.16303C88.1381 7.80844 88.5189 7.63115 89.0836 7.63115C89.4514 7.63115 89.7337 7.76904 89.9307 8.04483C90.1277 8.30749 90.2262 8.68178 90.2262 9.16769C90.2262 9.37782 90.1934 9.62078 90.1277 9.89657C90.062 10.1592 89.9307 10.5795 89.7337 11.1573L89.9504 10.5466C90.0686 11.7286 90.1671 12.7792 90.2459 13.6985C90.3378 14.6178 90.3838 15.5306 90.3838 16.4367C90.3838 18.144 90.0949 19.6215 89.517 20.8691C88.9523 22.1298 88.1512 23.1017 87.1137 23.7846C86.0893 24.4675 84.8811 24.8089 83.489 24.8089Z" fill="black"/>
<path d="M101.026 20.2781C100.724 20.2781 100.448 20.1533 100.199 19.9038C99.9621 19.6674 99.8439 19.2669 99.8439 18.7022C99.8439 18.2819 99.8768 17.6975 99.9424 16.9489C100.021 16.1872 100.166 15.2088 100.376 14.0137C99.9162 14.9593 99.4368 15.7998 98.9378 16.5352C98.4387 17.2707 97.9462 17.8485 97.4603 18.2688C96.9875 18.6759 96.5344 18.8794 96.1011 18.8794C95.405 18.8794 94.8534 18.6693 94.4463 18.2491C94.0392 17.8157 93.8356 17.008 93.8356 15.8261C93.8356 15.2613 93.8816 14.6244 93.9735 13.9152C94.0786 13.2061 94.2099 12.4969 94.3675 11.7877C94.5251 11.0785 94.6827 10.4481 94.8403 9.89657C95.011 9.33185 95.1621 8.9116 95.2934 8.63581C95.3984 8.39942 95.5298 8.21556 95.6874 8.08423C95.8581 7.9529 96.0748 7.88724 96.3374 7.88724C96.7577 7.88724 97.0795 8.02513 97.3027 8.30092C97.526 8.57671 97.6376 8.85907 97.6376 9.14799C97.6376 9.37125 97.5851 9.69301 97.48 10.1133C97.3881 10.5335 97.2699 10.9997 97.1254 11.5119C96.9941 12.0241 96.8562 12.5494 96.7117 13.0879C96.5673 13.6263 96.4425 14.1319 96.3374 14.6047C96.2455 15.0775 96.1996 15.478 96.1996 15.8064C96.1996 16.2135 96.3571 16.417 96.6723 16.417C96.8562 16.417 97.0926 16.2397 97.3815 15.8852C97.6836 15.5306 97.9988 15.0578 98.3271 14.4668C98.6685 13.8627 99.01 13.206 99.3514 12.4969C99.706 11.7746 100.028 11.0457 100.317 10.3103C100.619 9.56168 100.875 8.8722 101.085 8.24183C101.216 7.84784 101.394 7.57205 101.617 7.41446C101.84 7.25686 102.096 7.17806 102.385 7.17806C102.832 7.17806 103.173 7.30283 103.409 7.55235C103.659 7.80188 103.784 8.15646 103.784 8.61611C103.784 8.82624 103.751 9.18083 103.685 9.67988C103.62 10.1789 103.534 10.7633 103.429 11.4331C103.337 12.1029 103.226 12.8121 103.094 13.5606C102.963 14.3092 102.832 15.0447 102.7 15.767C102.582 16.4893 102.464 17.1525 102.346 17.7566C102.228 18.3476 102.129 18.8204 102.05 19.1749C101.919 19.7003 101.761 20.0154 101.577 20.1205C101.394 20.2256 101.21 20.2781 101.026 20.2781ZM101.676 6.0355C101.637 6.0355 101.446 6.0552 101.105 6.0946C100.763 6.134 100.35 6.17997 99.8636 6.2325C99.3777 6.28503 98.8852 6.33756 98.3862 6.39009C97.8871 6.44262 97.4472 6.48859 97.0663 6.52799C96.6986 6.56739 96.4688 6.58708 96.3768 6.58708C95.9172 6.58708 95.5429 6.50829 95.254 6.35069C94.9651 6.1931 94.8206 5.94357 94.8206 5.60212C94.8206 5.30006 94.9388 5.07024 95.1752 4.91264C95.4247 4.75505 95.753 4.67625 96.1601 4.67625C96.344 4.67625 96.6198 4.64999 96.9875 4.59745C97.3684 4.53179 97.8018 4.45956 98.2877 4.38076C98.7736 4.28883 99.2595 4.1969 99.7454 4.10497C100.244 4.01304 100.704 3.94081 101.124 3.88828C101.558 3.82262 101.899 3.78978 102.149 3.78978C102.635 3.78978 103.029 3.89485 103.331 4.10497C103.633 4.30197 103.784 4.61059 103.784 5.03084C103.784 5.39856 103.652 5.68092 103.39 5.87791C103.14 6.0749 102.805 6.1734 102.385 6.1734C102.254 6.1734 102.136 6.1537 102.031 6.1143C101.939 6.06177 101.82 6.0355 101.676 6.0355Z" fill="black"/>
</svg>
